<svg xmlns="http://www.w3.org/2000/svg">
  <symbol id="dashboard_admin">
    <svg width="24" height="24" viewBox="0 0 24 24" xmlns="http://www.w3.org/2000/svg">
      <path d="M21 16V4H3V16H21ZM21 2C21.5304 2 22.0391 2.21071 22.4142 2.58579C22.7893 2.96086 23 3.46957 23 4V16C23 16.5304 22.7893 17.0391 22.4142 17.4142C22.0391 17.7893 21.5304 18 21 18H14V20H16V22H8V20H10V18H3C2.46957 18 1.96086 17.7893 1.58579 17.4142C1.21071 17.0391 1 16.5304 1 16V4C1 2.89 1.89 2 3 2H21ZM5 6H14V11H5V6ZM15 6H19V8H15V6ZM19 9V14H15V9H19ZM5 12H9V14H5V12ZM10 12H14V14H10V12Z"/>
    </svg>
  </symbol>
  <symbol id="hotel_admin">
    <svg xmlns="http://www.w3.org/2000/svg" width="22" height="15" viewBox="0 0 22 15">
      <path d="M6 9C7.66 9 9 7.66 9 6C9 4.34 7.66 3 6 3C4.34 3 3 4.34 3 6C3 7.66 4.34 9 6 9ZM6 5C6.55 5 7 5.45 7 6C7 6.55 6.55 7 6 7C5.45 7 5 6.55 5 6C5 5.45 5.45 5 6 5ZM18 2H10V10H2V0H0V15H2V12H20V15H22V6C22 3.79 20.21 2 18 2ZM20 10H12V4H18C19.1 4 20 4.9 20 6V10Z"/>
    </svg>
  </symbol>
  <symbol id="history_admin">
    <svg width="21" height="18" viewBox="0 0 21 18" xmlns="http://www.w3.org/2000/svg">
      <path d="M12 0C9.61305 0 7.32387 0.948211 5.63604 2.63604C3.94821 4.32387 3 6.61305 3 9H0L3.89 12.89L3.96 13.03L8 9H5C5 5.13 8.13 2 12 2C15.87 2 19 5.13 19 9C19 12.87 15.87 16 12 16C10.07 16 8.32 15.21 7.06 13.94L5.64 15.36C6.47341 16.198 7.46449 16.8627 8.55606 17.3158C9.64764 17.769 10.8181 18.0015 12 18C14.3869 18 16.6761 17.0518 18.364 15.364C20.0518 13.6761 21 11.3869 21 9C21 6.61305 20.0518 4.32387 18.364 2.63604C16.6761 0.948211 14.3869 3.55683e-08 12 0ZM11 5V10L15.28 12.54L16 11.33L12.5 9.25V5H11Z"/>
    </svg>
  </symbol>
  <symbol id="account_admin">
    <svg width="20" height="20" viewBox="0 0 20 20" xmlns="http://www.w3.org/2000/svg">
      <path d="M10 0C4.48 0 0 4.48 0 10C0 15.52 4.48 20 10 20C15.52 20 20 15.52 20 10C20 4.48 15.52 0 10 0ZM5.07 16.28C5.5 15.38 8.12 14.5 10 14.5C11.88 14.5 14.51 15.38 14.93 16.28C13.57 17.36 11.86 18 10 18C8.14 18 6.43 17.36 5.07 16.28ZM16.36 14.83C14.93 13.09 11.46 12.5 10 12.5C8.54 12.5 5.07 13.09 3.64 14.83C2.62 13.49 2 11.82 2 10C2 5.59 5.59 2 10 2C14.41 2 18 5.59 18 10C18 11.82 17.38 13.49 16.36 14.83ZM10 4C8.06 4 6.5 5.56 6.5 7.5C6.5 9.44 8.06 11 10 11C11.94 11 13.5 9.44 13.5 7.5C13.5 5.56 11.94 4 10 4ZM10 9C9.17 9 8.5 8.33 8.5 7.5C8.5 6.67 9.17 6 10 6C10.83 6 11.5 6.67 11.5 7.5C11.5 8.33 10.83 9 10 9Z"/>
    </svg>
  </symbol>
  <symbol id="reports_admin">
    <svg width="18" height="21" viewBox="0 0 18 21" xmlns="http://www.w3.org/2000/svg">
      <path d="M13 11C10.24 11 8 13.24 8 16C8 18.76 10.24 21 13 21C15.76 21 18 18.76 18 16C18 13.24 15.76 11 13 11ZM14.65 18.35L12.5 16.2V13H13.5V15.79L15.35 17.64L14.65 18.35V18.35ZM14 2H10.82C10.4 0.84 9.3 0 8 0C6.7 0 5.6 0.84 5.18 2H2C0.9 2 0 2.9 0 4V19C0 20.1 0.9 21 2 21H8.11C7.51837 20.4258 7.03708 19.7479 6.69 19H2V4H4V7H12V4H14V9.08C14.71 9.18 15.38 9.39 16 9.68V4C16 2.9 15.1 2 14 2ZM8 4C7.45 4 7 3.55 7 3C7 2.45 7.45 2 8 2C8.55 2 9 2.45 9 3C9 3.55 8.55 4 8 4Z"/>
    </svg>
  </symbol
</svg>
